<svg xmlns="http://www.w3.org/2000/svg" width="40.897" height="40.897" viewBox="0 0 40.897 40.897"><defs><style>.a{fill:#fff;}</style></defs><g transform="translate(7.269 14.914)"><path class="a" d="M96.591,186.719a39.025,39.025,0,0,0-4.742.879,13.191,13.191,0,0,0-.351,8.249h5.093Z" transform="translate(-91 -186.718)"/><path class="a" d="M201,361v4.039a13.178,13.178,0,0,0,8.786,0V361Z" transform="translate(-192.214 -347.078)"/><path class="a" d="M355.458,187.59a39.041,39.041,0,0,0-4.747-.88l-.019,9.129h5.118a13.192,13.192,0,0,0-.351-8.249Z" transform="translate(-329.949 -186.71)"/></g><path class="a" d="M196.192,181c-1.788,0-3.532.071-5.192.207v9.778a2,2,0,0,1,.8,1.6v.4h8.786v-.4a1.994,1.994,0,0,1,.773-1.576l.02-9.8C199.721,181.071,197.978,181,196.192,181Zm0,6.79a1.2,1.2,0,1,1,1.2-1.2A1.2,1.2,0,0,1,196.192,187.79Z" transform="translate(-175.744 -166.542)"/><path class="a" d="M20.448,40.9A20.449,20.449,0,0,1,5.989,5.989,20.449,20.449,0,0,1,34.908,34.908,20.315,20.315,0,0,1,20.448,40.9Zm0-36.024A15.576,15.576,0,1,0,36.024,20.448,15.594,15.594,0,0,0,20.448,4.872Z" transform="translate(0 0)"/></svg>